<svg width="63" height="65" viewBox="0 0 63 65" fill="none" xmlns="http://www.w3.org/2000/svg">
<path fill-rule="evenodd" clip-rule="evenodd" d="M19.9555 1.05225C20.5146 0.0261626 21.7232 -0.30656 22.655 0.309091C23.5867 0.924743 23.8889 2.25563 23.3298 3.28172L13.3126 21.6669H49.6479L39.6307 3.28172C39.0716 2.25563 39.3738 0.924743 40.3056 0.309091C41.2373 -0.30656 42.4459 0.0261626 43.005 1.05225L54.2369 21.6669H60.993C62.0796 21.6669 62.9605 22.6369 62.9605 23.8335V32.5002C62.9605 33.6968 62.0796 34.6668 60.993 34.6668H59.0255V56.3334C59.0255 61.1198 55.5019 65 51.1554 65H11.8051C7.45858 65 3.93503 61.1198 3.93503 56.3334V34.6668H1.96752C0.880887 34.6668 0 33.6968 0 32.5002V23.8335C0 22.6369 0.880887 21.6669 1.96752 21.6669H8.72359L19.9555 1.05225ZM13.7726 41.1667C13.7726 39.9701 12.8917 39.0001 11.8051 39.0001C10.7185 39.0001 9.83758 39.9701 9.83758 41.1667V54.1667C9.83758 55.3633 10.7185 56.3333 11.8051 56.3333C12.8917 56.3333 13.7726 55.3633 13.7726 54.1667V41.1667ZM23.6102 41.1667C23.6102 39.9701 22.7293 39.0001 21.6427 39.0001C20.556 39.0001 19.6752 39.9701 19.6752 41.1667V54.1667C19.6752 55.3633 20.556 56.3333 21.6427 56.3333C22.7293 56.3333 23.6102 55.3633 23.6102 54.1667V41.1667ZM33.4478 41.1667C33.4478 39.9701 32.5669 39.0001 31.4803 39.0001C30.3936 39.0001 29.5127 39.9701 29.5127 41.1667V54.1667C29.5127 55.3633 30.3936 56.3333 31.4803 56.3333C32.5669 56.3333 33.4478 55.3633 33.4478 54.1667V41.1667ZM43.2853 41.1667C43.2853 39.9701 42.4045 39.0001 41.3178 39.0001C40.2312 39.0001 39.3503 39.9701 39.3503 41.1667V54.1667C39.3503 55.3633 40.2312 56.3333 41.3178 56.3333C42.4045 56.3333 43.2853 55.3633 43.2853 54.1667V41.1667ZM53.1229 41.1667C53.1229 39.9701 52.242 39.0001 51.1554 39.0001C50.0688 39.0001 49.1879 39.9701 49.1879 41.1667V54.1667C49.1879 55.3633 50.0688 56.3333 51.1554 56.3333C52.242 56.3333 53.1229 55.3633 53.1229 54.1667V41.1667Z" fill="#2D7600"/>
</svg>
