<svg width="22" height="22" viewBox="0 0 22 22" fill="none" xmlns="http://www.w3.org/2000/svg">
<path d="M3.4375 12.375C3.4375 10.8562 4.66872 9.625 6.1875 9.625H15.8125C17.3313 9.625 18.5625 10.8562 18.5625 12.375V19.25C18.5625 20.7688 17.3313 22 15.8125 22H6.1875C4.66872 22 3.4375 20.7688 3.4375 19.25V12.375Z" fill="#2E7200"/>
<path fill-rule="evenodd" clip-rule="evenodd" d="M6.1875 5.5C6.1875 2.84213 8.34213 0.6875 11 0.6875C13.6579 0.6875 15.8125 2.84213 15.8125 5.5V9.625H14.4375V5.5C14.4375 3.60152 12.8985 2.0625 11 2.0625C9.10152 2.0625 7.5625 3.60152 7.5625 5.5V9.625H6.1875V5.5Z" fill="#2E7200"/>
</svg>
