<svg width="185" height="34" viewBox="0 0 185 34" fill="none" xmlns="http://www.w3.org/2000/svg">
<path fill-rule="evenodd" clip-rule="evenodd" d="M26.0039 3.02152e-05V33.9999H33.2763V20.3875H36.7571L43.1592 33.9377L51.3018 33.9999L44.4646 20.3875H48.6913V4.84827L44.0916 0L26.0039 3.02152e-05ZM33.2763 7.33452H41.6053V13.9232H33.2763V7.33452Z" fill="#0D0D0D"/>
<path fill-rule="evenodd" clip-rule="evenodd" d="M56.9531 13.2395H71.3117V20.3875H56.9531V13.2395Z" fill="#FF4D4D"/>
<path fill-rule="evenodd" clip-rule="evenodd" d="M69.0105 33.9999H76.2829L72.9885 0H55.0874L51.793 33.9999H59.0654C59.9977 25.0493 60.8057 16.1608 61.4895 7.2724H66.5864C67.4566 16.223 67.9539 25.0492 69.0105 33.9999H69.0105Z" fill="#0D0D0D"/>
<path fill-rule="evenodd" clip-rule="evenodd" d="M7.27225 20.4497H10.6287L17.1553 33.9999H25.1736L16.4715 16.4095L24.6763 0H17.031L10.6287 13.1773H7.27225V0H0V7.2724V33.9999H7.27225V20.4497Z" fill="#0D0D0D"/>
<path fill-rule="evenodd" clip-rule="evenodd" d="M97.6289 7.2724C100.247 7.2724 102.865 7.2724 105.483 7.2724V33.9999H112.756V7.2724H120.525V0C113.138 0 105.75 0 98.3626 0L97.6289 7.2724H97.6289Z" fill="#0D0D0D"/>
<path fill-rule="evenodd" clip-rule="evenodd" d="M78.293 0V33.9999H85.5654V20.3875H94.143V13.1151H85.5654V7.2724C89.0839 7.2724 92.6019 7.2724 96.1206 7.2724L96.088 0C90.1561 0 84.225 0 78.293 0H78.293Z" fill="#0D0D0D"/>
<path fill-rule="evenodd" clip-rule="evenodd" d="M122.481 0V7.2724V33.9999H129.753V11.9342L136.714 24.179L143.614 11.9342V33.9999H145.096H150.886H165.928V26.6654H150.886V20.6361H158.532V13.3638H150.886V7.27245C154.411 7.27245 157.934 7.27245 161.459 7.27245L161.426 4.87341e-05C155.488 4.87341e-05 149.551 4.87341e-05 143.614 4.87341e-05L136.714 12.4315L129.753 4.87341e-05H122.48L122.481 0ZM162.782 7.2724C164.95 7.2724 167.117 7.2724 169.285 7.2724V33.9999H176.619V7.2724H184.327V0C177.395 0 170.463 0 163.531 0L162.782 7.2724H162.782Z" fill="#FF4D4D"/>
</svg>
