<svg width="30" height="30" viewBox="0 0 30 30" fill="none" xmlns="http://www.w3.org/2000/svg">
<path d="M2.97656 21.907V7.58146C2.97656 6.14295 4.14271 4.97681 5.58121 4.97681H26.4184C27.8569 4.97681 29.0231 6.14295 29.0231 7.58146V21.907C29.0231 23.3456 27.8569 24.5117 26.4184 24.5117H5.58121C4.1427 24.5117 2.97656 23.3456 2.97656 21.907Z" fill="#FF4D4D"/>
<path fill-rule="evenodd" clip-rule="evenodd" d="M4.5814 6C3.68233 6 2.95349 6.74619 2.95349 7.66667V22.3333C2.95349 23.2538 3.68233 24 4.5814 24H25.4186C26.3177 24 27.0465 23.2538 27.0465 22.3333V7.66667C27.0465 6.74619 26.3177 6 25.4186 6H4.5814ZM1 7.66667C1 5.64162 2.60345 4 4.5814 4H25.4186C27.3966 4 29 5.64162 29 7.66667V22.3333C29 24.3584 27.3966 26 25.4186 26H4.5814C2.60345 26 1 24.3584 1 22.3333V7.66667Z" fill="#FF4D4D"/>
<path fill-rule="evenodd" clip-rule="evenodd" d="M2.38521 9.78977C2.6043 9.29682 3.18152 9.07481 3.67446 9.2939L14.8665 14.2681C14.9507 14.3055 15.0467 14.3055 15.1309 14.2681L26.3229 9.2939C26.8159 9.07481 27.3931 9.29682 27.6122 9.78977C27.8313 10.2827 27.6093 10.8599 27.1163 11.079L15.9243 16.0532C15.335 16.3152 14.6624 16.3152 14.0731 16.0532L2.88108 11.079C2.38813 10.8599 2.16612 10.2827 2.38521 9.78977Z" fill="white"/>
</svg>
