<svg width="34" height="34" viewBox="0 0 34 34" fill="none" xmlns="http://www.w3.org/2000/svg">
<path d="M24.8606 22.1728C23.0417 23.3279 20.5389 23.786 18.8859 23.9586L20.2734 25.3261L25.3386 30.3913C27.1908 32.29 24.1768 35.2574 22.3048 33.4251C21.0368 32.1373 19.178 30.2785 17.2396 28.34L12.1743 33.4185C10.3023 35.2441 7.28835 32.2501 9.16042 30.3847C10.4483 29.0968 12.2872 27.238 14.2256 25.3195L15.5932 23.9519C13.9601 23.7793 11.4175 23.3478 9.57865 22.1661C7.41448 20.7721 6.46517 19.9555 7.30163 18.2494C7.79288 17.2802 9.14051 16.4636 10.9263 17.871C10.9263 17.871 13.3361 19.7895 17.2263 19.7895C21.1165 19.7895 23.5263 17.871 23.5263 17.871C25.312 16.4703 26.653 17.2802 27.1509 18.2494C27.9741 19.9555 27.0248 20.7721 24.8606 22.1728ZM8.60942 8.61021C8.60942 3.85036 12.4797 0 17.2196 0C21.9596 0 25.8298 3.85036 25.8298 8.61021C25.8298 13.3501 21.9596 17.2005 17.2196 17.2005C12.4797 17.2005 8.60942 13.3501 8.60942 8.61021ZM12.9909 8.61021C12.9909 10.9403 14.8895 12.839 17.2196 12.839C19.5498 12.839 21.4484 10.9403 21.4484 8.61021C21.4484 6.26016 19.5498 4.36153 17.2196 4.36153C14.8895 4.36153 12.9909 6.26016 12.9909 8.61021Z" fill="#E74C3C"/>
</svg>
