<svg width="30" height="30" viewBox="0 0 30 30" fill="none" xmlns="http://www.w3.org/2000/svg">
<path fill-rule="evenodd" clip-rule="evenodd" d="M7.75 7.99999C7.75 4.134 10.884 1 14.75 1C18.616 1 21.75 4.134 21.75 7.99999C21.75 11.5696 19.078 14.5152 15.625 14.9458V24.625C15.625 25.1082 15.2332 25.5 14.75 25.5C14.2667 25.5 13.875 25.1082 13.875 24.625V14.9458C10.422 14.5152 7.75 11.5696 7.75 7.99999ZM12.1132 23.0049C12.1922 23.4816 11.8697 23.9321 11.393 24.0111C10.148 24.2173 9.1545 24.5267 8.498 24.8726C8.16932 25.0458 7.96385 25.208 7.85007 25.337C7.79547 25.3989 7.77026 25.4437 7.75922 25.4692C7.75383 25.4816 7.75171 25.4896 7.75086 25.4935C7.75004 25.4972 7.75 25.5 7.75 25.5C7.75 25.5 7.74991 25.5043 7.75267 25.5134C7.75564 25.5231 7.76297 25.5424 7.78069 25.5713C7.81783 25.6318 7.89357 25.7227 8.03546 25.8345C8.32436 26.0622 8.79664 26.3055 9.45823 26.5261C10.7723 26.9641 12.6432 27.25 14.75 27.25C16.8567 27.25 18.7277 26.9641 20.0417 26.5261C20.7033 26.3055 21.1756 26.0622 21.4645 25.8345C21.6064 25.7227 21.6821 25.6318 21.7193 25.5713C21.737 25.5424 21.7443 25.5231 21.7473 25.5134C21.75 25.5046 21.75 25.5001 21.75 25.5001C21.75 25.5001 21.7499 25.4972 21.7491 25.4935C21.7483 25.4896 21.7461 25.4816 21.7408 25.4692C21.7297 25.4437 21.7045 25.3989 21.6499 25.337C21.5361 25.208 21.3306 25.0458 21.002 24.8726C20.3455 24.5267 19.352 24.2173 18.107 24.0111C17.6302 23.9321 17.3078 23.4816 17.3867 23.0049C17.4657 22.5281 17.9162 22.2057 18.393 22.2846C19.7409 22.5079 20.935 22.8593 21.8177 23.3244C22.6265 23.7505 23.5 24.4525 23.5 25.5C23.5 26.2455 23.0459 26.8164 22.5477 27.209C22.0396 27.6094 21.3586 27.9318 20.5951 28.1863C19.059 28.6983 16.9925 29 14.75 29C12.5075 29 10.441 28.6983 8.90483 28.1863C8.14133 27.9318 7.46034 27.6094 6.95225 27.209C6.45403 26.8164 6 26.2455 6 25.5C6 24.4525 6.87346 23.7505 7.68224 23.3244C8.56498 22.8593 9.75903 22.5079 11.107 22.2846C11.5837 22.2057 12.0343 22.5281 12.1132 23.0049Z" fill="#FF4D4D"/>
</svg>
