<svg width="21" height="21" viewBox="0 0 21 21" fill="none" xmlns="http://www.w3.org/2000/svg">
<path d="M14.2909 10.5L19.9767 4.8142C20.6744 4.11648 20.6744 2.98523 19.9767 2.28693L18.7131 1.0233C18.0153 0.325568 16.8841 0.325568 16.1858 1.0233L10.5 6.70909L4.8142 1.0233C4.11648 0.325568 2.98523 0.325568 2.28693 1.0233L1.0233 2.28693C0.325568 2.98466 0.325568 4.11591 1.0233 4.8142L6.70909 10.5L1.0233 16.1858C0.325568 16.8835 0.325568 18.0148 1.0233 18.7131L2.28693 19.9767C2.98466 20.6744 4.11648 20.6744 4.8142 19.9767L10.5 14.2909L16.1858 19.9767C16.8835 20.6744 18.0153 20.6744 18.7131 19.9767L19.9767 18.7131C20.6744 18.0153 20.6744 16.8841 19.9767 16.1858L14.2909 10.5Z" fill="#FF4D4D"/>
</svg>
