<svg width="30" height="30" viewBox="0 0 30 30" fill="none" xmlns="http://www.w3.org/2000/svg">
<path fill-rule="evenodd" clip-rule="evenodd" d="M13.1562 21.75C17.9024 21.75 21.75 17.9024 21.75 13.1562C21.75 8.41005 17.9024 4.5625 13.1562 4.5625C8.41005 4.5625 4.5625 8.41005 4.5625 13.1562C4.5625 17.9024 8.41005 21.75 13.1562 21.75ZM23.3125 13.1562C23.3125 18.7654 18.7654 23.3125 13.1562 23.3125C7.54711 23.3125 3 18.7654 3 13.1562C3 7.54711 7.54711 3 13.1562 3C18.7654 3 23.3125 7.54711 23.3125 13.1562Z" fill="#2D7600"/>
<path d="M19.1623 21.3471C19.2084 21.4096 19.2597 21.4694 19.3163 21.526L20.7903 23L21.3471 24.5L25 27.5424C25.6102 28.1525 26.9322 28.1525 27.5424 27.5424C28.1525 26.9322 27.6102 25.6102 27 25L24.5 21.526L23 20.7903L21.526 19.3163C21.4694 19.2597 21.4096 19.2084 21.3471 19.1623C20.7342 19.9968 19.9968 20.7342 19.1623 21.3471Z" fill="#2D7600"/>
</svg>
