<svg width="30" height="30" viewBox="0 0 30 30" fill="none" xmlns="http://www.w3.org/2000/svg">
<path d="M11.0617 7.91667L7.95573 3.38877C7.55426 2.8035 6.84003 2.51837 6.36601 2.78649C5.213 3.43866 3.29987 4.76696 3.08023 6.49631C2.76669 8.96498 5.77151 13.2954 5.87979 13.4505L5.88627 13.4595C5.99821 13.6118 8.79012 17.4011 10.9409 19.5519C13.0917 21.7027 16.881 24.4947 17.0335 24.6068L17.0426 24.6133C17.198 24.7218 21.5281 27.7261 23.9968 27.4129C25.7261 27.1935 27.0549 25.2812 27.7075 24.1285C27.9759 23.6545 27.6908 22.9401 27.1054 22.5385L22.5774 19.4325C21.9944 19.0326 21.3231 19.0873 21.0523 19.5568L20.14 21.1385C19.861 21.6222 19.1618 21.6633 18.5797 21.2176C17.2658 20.2114 15.0157 18.4318 13.5385 16.9546C12.0614 15.4775 10.282 13.2277 9.27585 11.9138C8.83002 11.3316 8.8712 10.6321 9.35521 10.3533L10.9371 9.44195C11.4068 9.17132 11.4617 8.49983 11.0617 7.91667Z" fill="#FF4D4D"/>
<path fill-rule="evenodd" clip-rule="evenodd" d="M6.01236 2.21541C6.88785 1.71146 8.15152 2.2347 8.8215 3.22283L11.816 7.63932C12.4909 8.63474 12.3792 9.7941 11.5622 10.2728L9.99015 11.1939C9.86634 11.2664 9.86694 11.4287 9.95909 11.5501C10.932 12.8309 12.6067 14.9594 13.9731 16.3258C15.3395 17.6922 17.4684 19.3672 18.7492 20.34C18.8705 20.4322 19.0327 20.4328 19.1053 20.3091L20.0273 18.7371C20.5063 17.9206 21.6653 17.8092 22.6605 18.4839L27.077 21.4785C28.0654 22.1486 28.5886 23.4126 28.0842 24.2881C27.7413 24.8832 27.2142 25.6908 26.5378 26.3877C25.8744 27.0712 24.9981 27.7215 23.929 27.8727C22.4273 28.0851 20.5147 27.312 19.1188 26.6093C17.67 25.8801 16.5248 25.0946 16.4285 25.0282L16.4146 25.0186L16.3941 25.0039C16.2611 24.907 12.4851 22.1541 10.3148 19.9837C8.14452 17.8134 5.39175 14.0375 5.29502 13.9047L5.28655 13.893L5.27062 13.8705C5.20424 13.7743 4.4188 12.629 3.68948 11.1802C2.98677 9.78422 2.21357 7.87153 2.42615 6.36971C2.57749 5.30052 3.22819 4.4244 3.91195 3.76118C4.60914 3.08494 5.41708 2.55806 6.01236 2.21541ZM7.29007 3.7781C7.23893 3.75906 7.19281 3.75943 7.15101 3.7835C6.60059 4.10032 5.88339 4.5716 5.28143 5.15548C4.66605 5.75237 4.2436 6.39832 4.15328 7.03645C4.02087 7.97186 4.52406 9.38946 5.21009 10.7523C5.84831 12.0202 6.53912 13.037 6.6174 13.1511C6.80049 13.402 9.39628 16.9439 11.3755 18.9231C13.3548 20.9024 16.8968 23.4983 17.1477 23.6815C17.262 23.7599 18.2789 24.4506 19.5466 25.0887C20.9094 25.7747 22.327 26.2778 23.2625 26.1456C23.9007 26.0553 24.5467 25.6331 25.1438 25.0179C25.7278 24.4162 26.1993 23.6993 26.5164 23.149C26.5404 23.1072 26.5408 23.0611 26.5218 23.0099C26.5014 22.9553 26.4568 22.8925 26.3832 22.8426L21.9667 19.8481C21.8245 19.7517 21.6589 19.7676 21.5905 19.8842L20.6684 21.4562C20.1771 22.2939 18.96 22.3958 17.9472 21.6265C16.6679 20.6549 14.4141 18.8882 12.9124 17.3864C11.4108 15.8849 9.64434 13.6314 8.67262 12.3521C7.90312 11.339 8.0053 10.1216 8.84351 9.63046L10.4156 8.70935C10.5323 8.64096 10.5483 8.47534 10.4518 8.33314L7.45733 3.91664C7.40745 3.84308 7.34467 3.79844 7.29007 3.7781Z" fill="#FF4D4D"/>
</svg>
